<?xml version="1.0" standalone="no"?>
<!DOCTYPE svg PUBLIC "-//W3C//DTD SVG 20010904//EN"
 "http://www.w3.org/TR/2001/REC-SVG-20010904/DTD/svg10.dtd">
<svg version="1.0" xmlns="http://www.w3.org/2000/svg"
 width="612.000000pt" height="408.000000pt" viewBox="0 0 612.000000 408.000000"
 preserveAspectRatio="xMidYMid meet">

<g transform="translate(0.000000,408.000000) scale(0.100000,-0.100000)"
fill="#000000" stroke="none">
<path d="M3005 3581 c-118 -20 -268 -91 -361 -171 -156 -135 -249 -310 -272
-510 -8 -77 -6 -170 4 -170 3 0 30 11 62 23 31 13 86 34 121 47 36 13 86 38
112 56 47 31 121 54 178 54 36 0 41 6 30 39 -6 16 -22 31 -39 38 -22 8 -30 18
-30 37 0 13 5 28 10 31 18 11 11 25 -13 25 -57 0 -62 54 -10 105 100 97 415
187 476 136 21 -17 22 -54 2 -71 -21 -18 -19 -24 15 -37 33 -12 39 -37 16 -62
-13 -14 -9 -31 26 -135 36 -104 44 -119 69 -128 35 -12 44 -35 24 -64 -19 -30
-19 -34 3 -34 26 0 62 -28 62 -48 -1 -26 -49 -76 -106 -111 -122 -74 -353
-124 -409 -87 -31 20 -31 35 -4 70 12 15 20 28 18 30 -2 1 -16 7 -31 14 -29
12 -38 48 -17 69 11 11 3 59 -11 68 -5 3 -22 -6 -38 -20 -50 -42 -132 -75
-186 -75 -34 0 -89 -15 -175 -47 -69 -25 -128 -48 -130 -50 -2 -2 13 -42 33
-91 75 -172 200 -301 371 -382 143 -68 218 -84 368 -77 94 4 138 11 192 30
268 94 447 280 517 538 30 114 31 290 1 400 -70 255 -270 458 -528 539 -78 24
-263 35 -350 21z m448 -1242 c41 -45 45 -64 20 -91 -15 -17 -39 -18 -353 -18
-248 0 -339 3 -348 12 -22 22 -13 62 23 101 l34 37 294 0 294 0 36 -41z"/>
<path d="M2532 3558 c-24 -11 -54 -35 -67 -52 -32 -41 -151 -166 -158 -166 -3
0 3 19 13 43 21 45 28 153 10 142 -20 -12 -50 -85 -50 -119 0 -19 5 -46 11
-60 10 -20 8 -29 -8 -53 -28 -40 -35 -53 -29 -53 3 0 16 17 29 37 23 35 27 38
78 38 33 1 69 9 94 22 l40 21 -39 7 c-22 5 -54 3 -74 -3 -20 -6 -37 -10 -39
-8 -2 2 22 28 52 58 44 44 65 57 98 62 50 8 99 39 122 78 16 28 16 28 -12 28
-15 -1 -47 -10 -71 -22z"/>
<path d="M3670 3571 c0 -16 41 -61 69 -75 15 -8 45 -17 66 -21 29 -5 54 -21
93 -58 28 -28 52 -54 52 -57 0 -4 -22 -2 -49 4 -35 7 -57 6 -73 -1 -22 -11
-22 -11 17 -29 22 -10 63 -18 90 -18 32 -1 54 -6 62 -16 17 -21 75 -130 70
-130 -3 0 -25 11 -48 25 -46 26 -74 31 -84 15 -9 -15 71 -68 115 -75 37 -6 40
-9 55 -60 8 -30 18 -69 21 -87 l6 -33 -34 37 c-19 22 -46 39 -66 43 l-32 7 21
-36 c22 -38 59 -69 97 -80 21 -7 22 -13 22 -98 0 -96 -2 -99 -28 -47 -17 32
-67 77 -76 68 -10 -10 36 -94 68 -123 l33 -32 -20 -82 c-19 -79 -37 -100 -37
-44 0 16 -12 42 -30 62 l-29 35 -1 -38 c0 -41 21 -101 46 -129 15 -15 13 -22
-16 -72 -17 -31 -35 -58 -41 -61 -5 -4 -9 -12 -9 -18 1 -16 25 16 61 79 26 45
35 52 68 58 27 4 48 16 65 37 29 34 60 89 51 89 -19 0 -68 -36 -103 -75 -22
-25 -42 -45 -44 -45 -3 0 6 37 19 81 12 45 23 90 23 100 0 12 11 24 28 30 15
6 37 20 49 31 24 23 58 99 51 118 -7 21 -56 -29 -83 -85 -14 -30 -28 -55 -31
-55 -2 0 -4 51 -3 113 1 90 -4 131 -25 210 l-25 98 25 36 c27 40 30 87 10 142
-18 50 -29 25 -36 -79 -6 -80 -7 -83 -19 -55 -7 17 -30 57 -52 91 -39 60 -39
61 -23 93 19 38 13 85 -18 138 l-22 36 -9 -27 c-7 -21 -4 -44 12 -93 12 -36
20 -68 18 -70 -3 -2 -49 43 -103 101 -54 58 -113 113 -130 121 -35 16 -84 20
-84 6z"/>
<path d="M2167 3334 c-17 -29 -26 -103 -15 -136 24 -73 48 -58 47 32 0 57 -20
122 -32 104z"/>
<path d="M2226 3192 c-56 -115 -86 -247 -87 -385 -1 -87 -3 -97 -12 -69 -6 19
-30 55 -53 80 -43 47 -43 47 -44 19 0 -55 46 -122 90 -132 24 -5 30 -13 35
-44 19 -115 98 -288 162 -358 19 -21 30 -31 24 -22 -8 12 -8 24 -1 43 11 30
14 115 4 141 -12 30 -36 -22 -36 -76 0 -44 -2 -48 -16 -37 -8 7 -27 39 -42 71
l-26 58 24 49 c30 60 42 133 20 125 -20 -8 -48 -59 -48 -88 0 -70 -38 -6 -55
93 -6 31 -3 38 25 59 30 21 47 51 65 110 l7 23 -32 -18 c-18 -11 -40 -36 -50
-56 -9 -21 -20 -35 -23 -31 -4 3 -7 42 -7 85 l0 79 35 14 c38 17 70 46 91 88
15 27 15 28 -13 21 -15 -3 -43 -22 -60 -42 l-33 -35 1 34 c0 19 8 56 18 83 16
46 20 50 70 65 57 18 108 58 92 74 -11 11 -74 -8 -91 -29 -20 -23 -30 -16 -19
12 15 41 5 38 -15 -4z"/>
<path d="M4202 3077 c-20 -35 -41 -102 -42 -134 0 -7 7 -13 16 -13 24 0 56 83
52 138 l-3 47 -23 -38z"/>
<path d="M2060 3063 c0 -41 37 -124 58 -131 21 -7 14 79 -11 122 -30 54 -47
57 -47 9z"/>
<path d="M2050 2604 c0 -33 72 -109 113 -119 37 -10 34 4 -13 58 -33 37 -100
78 -100 61z"/>
<path d="M3944 2434 c-5 -36 -3 -61 9 -94 l16 -45 -59 -60 c-33 -32 -62 -57
-65 -54 -3 3 2 23 10 44 16 38 12 95 -6 95 -17 0 -43 -73 -44 -125 l-1 -50
-69 -42 c-38 -24 -66 -43 -62 -43 13 0 70 31 105 57 30 22 34 23 54 9 30 -21
74 -20 124 3 61 28 64 41 10 41 -24 0 -55 -4 -68 -9 -76 -28 -76 -21 4 57 85
82 103 106 92 123 -3 6 -7 33 -8 60 -1 30 -8 55 -18 65 -15 15 -17 13 -24 -32z"/>
<path d="M2142 2358 c10 -29 78 -70 125 -76 43 -5 47 -4 35 11 -43 51 -173
104 -160 65z"/>
<path d="M4085 2359 c-45 -25 -95 -62 -95 -72 0 -6 19 -7 46 -4 38 4 55 13 88
46 l41 41 -30 0 c-17 0 -39 -6 -50 -11z"/>
<path d="M2435 2292 c-3 -16 0 -47 8 -71 8 -22 12 -41 8 -41 -3 0 -25 19 -49
41 -24 23 -45 39 -48 36 -3 -2 23 -30 58 -62 56 -51 60 -56 33 -49 -16 4 -40
11 -53 15 -13 5 -44 9 -68 9 -54 0 -51 -13 10 -41 50 -23 94 -24 123 -4 21 15
25 14 63 -10 69 -44 110 -65 110 -57 0 4 -33 26 -73 49 -72 41 -73 41 -69 78
4 35 -20 119 -38 130 -5 3 -11 -8 -15 -23z"/>
<path d="M1117 1886 c-50 -18 -74 -41 -87 -82 -28 -85 23 -141 152 -167 68
-14 88 -38 52 -64 -27 -20 -50 -16 -78 15 -23 24 -32 27 -77 23 -48 -3 -50 -4
-44 -28 18 -72 94 -118 185 -111 112 9 158 53 147 144 -6 61 -28 80 -112 100
-101 24 -115 31 -115 54 0 41 80 46 103 6 10 -17 21 -21 64 -21 49 0 53 2 53
24 0 33 -67 96 -115 110 -51 14 -81 13 -128 -3z"/>
<path d="M1545 1886 c-22 -9 -59 -35 -82 -59 -80 -85 -84 -196 -8 -284 75 -88
238 -98 323 -20 82 75 88 225 13 311 -47 53 -171 79 -246 52z m144 -123 c28
-34 35 -65 27 -109 -10 -52 -37 -74 -91 -74 -71 0 -104 47 -92 128 13 78 112
113 156 55z"/>
<path d="M2796 1885 c-127 -45 -181 -185 -118 -306 22 -42 38 -58 76 -78 149
-77 318 -2 341 151 10 69 -10 126 -64 179 -66 67 -148 85 -235 54z m125 -105
c44 -24 62 -106 34 -159 -24 -48 -110 -57 -150 -16 -36 35 -35 111 1 154 28
33 75 42 115 21z"/>
<path d="M1880 1680 l0 -211 62 3 63 3 3 59 c1 33 4 61 6 64 2 2 19 -25 38
-60 l33 -63 73 -3 72 -3 -37 67 c-29 53 -34 69 -23 72 8 3 27 18 42 33 25 25
28 35 28 96 0 123 -46 152 -237 153 l-123 0 0 -210z m207 104 c25 -7 36 -29
28 -55 -5 -15 -16 -19 -56 -19 l-49 0 0 40 c0 37 2 40 28 40 15 0 37 -3 49 -6z"/>
<path d="M2270 1680 l0 -210 65 0 65 0 0 80 0 80 45 0 45 0 0 -80 0 -80 65 0
65 0 0 210 0 210 -65 0 -65 0 0 -75 0 -75 -45 0 -45 0 0 75 0 75 -65 0 -65 0
0 -210z"/>
<path d="M3390 1680 l0 -211 157 3 157 3 4 39 c2 21 1 49 -2 62 -6 23 -10 24
-96 24 -73 0 -90 3 -90 15 0 12 16 15 81 15 l80 0 -3 53 -3 52 -78 3 c-56 2
-77 6 -74 15 2 8 35 13 95 15 l92 3 0 59 0 60 -160 0 -160 0 0 -210z"/>
<path d="M3740 1840 l0 -50 55 0 55 0 0 -160 0 -160 65 0 64 0 3 158 3 157 53
3 52 3 0 50 0 49 -175 0 -175 0 0 -50z"/>
<path d="M4122 1738 c3 -139 5 -156 26 -190 69 -110 272 -103 330 12 20 40 22
59 22 187 l0 143 -65 0 -65 0 0 -139 c0 -153 -6 -171 -58 -171 -54 0 -57 7
-60 165 l-3 145 -66 0 -65 0 4 -152z"/>
<path d="M4530 1679 l0 -212 113 6 c61 3 129 11 149 17 83 24 138 102 138 194
0 95 -29 142 -115 182 -44 21 -65 24 -167 24 l-118 0 0 -211z m203 100 c26 -7
44 -21 57 -42 28 -45 25 -81 -8 -118 -23 -26 -38 -33 -80 -37 l-52 -5 0 100
c0 55 3 103 7 106 9 10 32 9 76 -4z"/>
<path d="M4970 1680 l0 -210 155 0 155 0 0 65 0 65 -95 0 c-78 0 -95 3 -95 15
0 12 16 15 80 15 l80 0 0 53 0 54 -77 0 c-59 1 -78 4 -78 14 0 11 23 15 93 17
l92 3 0 59 0 60 -155 0 -155 0 0 -210z"/>
<path d="M3208 1703 l-88 -4 0 -49 0 -50 83 -1 c45 0 99 -1 120 -2 l37 -2 0
58 0 57 -32 -2 c-18 -1 -72 -4 -120 -5z"/>
<path d="M1020 1340 c0 -20 7 -20 2080 -20 2073 0 2080 0 2080 20 0 20 -7 20
-2080 20 -2073 0 -2080 0 -2080 -20z"/>
<path d="M1960 1005 l0 -165 25 0 25 0 0 118 0 117 20 -25 c11 -14 48 -67 82
-117 48 -73 67 -93 85 -93 l23 0 0 165 0 165 -25 0 -25 0 0 -115 c0 -63 -3
-115 -7 -115 -5 1 -21 23 -38 50 -84 136 -118 180 -142 180 l-23 0 0 -165z"/>
<path d="M2415 1155 c-38 -16 -59 -41 -74 -84 -41 -124 34 -233 161 -233 64 1
119 36 149 94 40 79 7 186 -68 222 -40 19 -126 20 -168 1z m161 -59 c30 -30
34 -40 34 -88 0 -45 -5 -59 -29 -85 -71 -78 -201 -28 -201 79 0 78 48 127 124
128 30 0 45 -7 72 -34z"/>
<path d="M2730 1150 c0 -18 7 -20 55 -20 l55 0 0 -145 0 -145 25 0 25 0 0 145
0 145 55 0 c48 0 55 2 55 20 0 19 -7 20 -135 20 -128 0 -135 -1 -135 -20z"/>
<path d="M3122 1118 c-11 -29 -39 -93 -62 -143 -66 -141 -64 -135 -31 -135 25
0 31 7 49 50 l21 50 74 0 74 0 23 -50 c18 -39 29 -50 47 -50 13 0 23 6 23 13
0 6 -31 80 -69 162 -65 141 -71 150 -99 153 -28 3 -32 -1 -50 -50z m101 -130
c-2 -5 -24 -8 -48 -8 -24 0 -46 3 -48 8 -2 4 7 32 20 62 l25 55 28 -55 c15
-30 26 -58 23 -62z"/>
<path d="M3450 1005 l0 -165 25 0 25 0 0 165 0 165 -25 0 -25 0 0 -165z"/>
<path d="M3600 1005 l0 -165 25 0 c23 0 24 4 27 62 4 88 23 89 78 4 33 -51 48
-66 66 -66 31 0 30 4 -11 70 l-34 55 29 8 c39 10 70 52 70 94 0 76 -45 103
-170 103 l-80 0 0 -165z m157 119 c12 -3 27 -19 34 -35 10 -25 9 -32 -6 -49
-14 -16 -31 -20 -77 -20 l-58 0 0 48 c0 27 3 52 7 55 8 8 70 9 100 1z"/>
<path d="M3950 1005 l0 -165 115 0 115 0 0 30 0 30 -85 0 -85 0 0 45 0 45 75
0 c68 0 75 2 75 20 0 18 -7 20 -75 20 l-75 0 0 45 0 45 85 0 c84 0 85 0 85 25
l0 25 -115 0 -115 0 0 -165z"/>
</g>
</svg>
